#!OML:ASF E:\Style4\Style4.ASF
:FULLY-SPECIFIED
:DEGREES
1529
root 0.648997 16.51 0.160086 3.30121 8.76303 2.34101
lowerback 12.8062 -0.059176 -5.43184
upperback 5.32918 -0.653089 1.51299
thorax -1.48433 -0.400428 4.74268
lowerneck 13.1142 -23.0439 -10.606
upperneck -1.05169 -31.7387 9.25506
head 0.799598 -16.1046 4.25389
rclavicle -1.33186e-014 7.95139e-015
rhumerus -20.9421 28.5466 -55.4134
rradius 135.539
rwrist -75.3891
rhand 58.3715 -5.29
rfingers 7.12502
rthumb 74.1679 21.503
lclavicle -1.33186e-014 7.95139e-015
lhumerus -16.4287 -14.9961 50.5235
lradius 140.92
lwrist 75.3139
lhand 36.2495 50.2815
lfingers 7.12502
lthumb 59.2203 64.8551
rfemur -25.7103 -12.9528 14.4392
rtibia 58.9427
rfoot -31.3492 -21.0388
rtoes -15.2295
lfemur -28.4315 0.115766 -24.6816
ltibia 57.8373
lfoot -31.0087 10.6035
ltoes -15.7764
1530
root 0.652177 16.5099 0.160062 3.3029 8.62546 2.35924
lowerback 12.8124 -0.0768514 -5.40628
upperback 5.33836 -0.674879 1.47316
thorax -1.47658 -0.411112 4.68901
lowerneck 13.095 -23.0005 -10.5785
upperneck -1.1915 -31.6728 9.40514
head 0.773636 -16.0767 4.2988
rclavicle 2.18663e-014 -1.39149e-014
rhumerus -21.2831 28.3943 -55.5225
rradius 135.554
rwrist -75.5012
rhand 58.3003 -5.36325
rfingers 7.12502
rthumb 74.1455 21.1915
lclavicle 2.18663e-014 -1.39149e-014
lhumerus -16.1896 -15.3652 50.5247
lradius 140.883
lwrist 75.3713
lhand 36.1635 50.2202
lfingers 7.12502
lthumb 59.1461 64.8667
rfemur -25.6934 -12.8853 14.388
rtibia 58.9544
rfoot -31.5599 -20.9137
rtoes -15.1119
lfemur -28.4197 0.20507 -24.717
ltibia 57.8521
lfoot -31.0031 10.6669
ltoes -16.0885
1531
root 0.656702 16.5121 0.159333 3.30442 8.46827 2.432
lowerback 12.8227 -0.0976747 -5.44769
upperback 5.35841 -0.708778 1.42886
thorax -1.45681 -0.429264 4.67037
lowerneck 13.011 -22.9153 -10.5648
upperneck -1.23573 -31.5522 9.46509
head 0.768006 -16.0174 4.31281
rclavicle -1.42131e-014 2.3059e-014
rhumerus -21.5224 28.2792 -55.6045
rradius 135.532
rwrist -75.5596
rhand 58.3104 -5.44112
rfingers 7.12502
rthumb 74.1487 21.1472
lclavicle -1.42131e-014 2.3059e-014
lhumerus -15.992 -15.5131 50.5155
lradius 140.936
lwrist 75.5726
lhand 35.698 50.3294
lfingers 7.12502
lthumb 58.7436 65.3643
rfemur -25.7594 -12.8704 14.2874
rtibia 58.97
rfoot -31.3192 -20.9075
rtoes -15.5678
lfemur -28.3767 0.273457 -24.8172
ltibia 57.8353
lfoot -31.1041 10.6597
ltoes -16.0486
1532
root 0.660537 16.5117 0.155537 3.30771 8.31692 2.4588
lowerback 12.8707 -0.130852 -5.44601
upperback 5.34937 -0.756085 1.40455
thorax -1.48704 -0.451543 4.65112
lowerneck 12.9498 -22.8039 -10.6109
upperneck -1.21011 -31.4089 9.44857
head 0.774314 -15.9443 4.3123
rclavicle -2.22639e-014 -7.15625e-015
rhumerus -21.7319 28.2331 -55.6745
rradius 135.529
rwrist -75.6431
rhand 58.2478 -5.48423
rfingers 7.12502
rthumb 74.1288 20.8953
lclavicle -2.22639e-014 -7.15625e-015
lhumerus -15.8393 -15.5406 50.5262
lradius 141.041
lwrist 75.775
lhand 35.1657 50.6177
lfingers 7.12502
lthumb 58.2814 66.0839
rfemur -25.8666 -12.858 14.2601
rtibia 58.9958
rfoot -30.9106 -20.8778
rtoes -15.9668
lfemur -28.3659 0.343266 -24.8663
ltibia 57.8174
lfoot -31.1358 10.6695
ltoes -15.9913
1533
root 0.664629 16.5119 0.152864 3.29997 8.18833 2.48507
lowerback 12.9339 -0.167448 -5.43606
upperback 5.32339 -0.80818 1.37711
thorax -1.54299 -0.474866 4.62506
lowerneck 12.9388 -22.6698 -10.6826
upperneck -1.15389 -31.243 9.42069
head 0.782486 -15.8604 4.31629
rclavicle -1.40143e-014 2.06736e-014
rhumerus -22.0003 28.2329 -55.8018
rradius 135.513
rwrist -75.6703
rhand 58.2777 -5.29386
rfingers 7.12502
rthumb 74.1383 21.1854
lclavicle -1.40143e-014 2.06736e-014
lhumerus -15.7549 -15.6392 50.5385
lradius 140.974
lwrist 75.5133
lhand 35.6597 50.4014
lfingers 7.12502
lthumb 58.7104 65.4678
rfemur -25.8959 -12.8548 14.2139
rtibia 59.0016
rfoot -30.7889 -20.6785
rtoes -15.8907
lfemur -28.3413 0.428913 -24.9136
ltibia 57.7922
lfoot -31.1113 10.7165
ltoes -16.1083
1534
root 0.667934 16.5118 0.152622 3.28836 8.07574 2.50952
lowerback 12.9426 -0.179853 -5.42013
upperback 5.31738 -0.824113 1.35525
thorax -1.55297 -0.482038 4.59533
lowerneck 12.9438 -22.5334 -10.7454
upperneck -1.0447 -31.075 9.33833
head 0.794426 -15.7738 4.30562
rclavicle 1.00386e-014 3.97569e-015
rhumerus -22.3209 28.1866 -55.9274
rradius 135.509
rwrist -75.5998
rhand 58.3159 -5.14806
rfingers 7.12502
rthumb 74.1504 21.4587
lclavicle 1.00386e-014 3.97569e-015
lhumerus -15.5712 -15.7339 50.5557
lradius 140.697
lwrist 74.9512
lhand 36.8131 49.6364
lfingers 7.12502
lthumb 59.705 63.7227
rfemur -25.891 -12.8153 14.1564
rtibia 58.9787
rfoot -30.8756 -20.6987
rtoes -15.874
lfemur -28.3027 0.474521 -24.9563
ltibia 57.7703
lfoot -31.0924 10.7776
ltoes -16.1435
1535
root 0.670332 16.5134 0.152049 3.27739 7.99151 2.47859
lowerback 12.9413 -0.182461 -5.32267
upperback 5.31873 -0.816596 1.33586
thorax -1.55444 -0.476957 4.51835
lowerneck 12.9417 -22.3749 -10.7595
upperneck -0.975483 -30.8692 9.26837
head 0.786715 -15.6688 4.29965
rclavicle 3.47873e-015 3.97569e-016
rhumerus -22.5606 28.0809 -55.9973
rradius 135.486
rwrist -75.6132
rhand 58.2696 -5.11321
rfingers 7.12502
rthumb 74.1358 21.3392
lclavicle 3.47873e-015 3.97569e-016
lhumerus -15.3899 -15.9274 50.6196
lradius 140.59
lwrist 74.8428
lhand 36.8267 49.3109
lfingers 7.12502
lthumb 59.7167 63.3852
rfemur -25.8826 -12.7537 14.1698
rtibia 58.9299
rfoot -30.909 -20.8322
rtoes -16.0147
lfemur -28.2759 0.508436 -24.9322
ltibia 57.7505
lfoot -31.086 10.7904
ltoes -15.9748
1536
root 0.671333 16.5181 0.15266 3.24534 7.90781 2.44835
lowerback 12.945 -0.17293 -5.25762
upperback 5.33889 -0.796589 1.32216
thorax -1.53933 -0.467012 4.46401
lowerneck 12.9381 -22.1994 -10.7057
upperneck -0.990704 -30.6293 9.18631
head 0.738905 -15.5461 4.29521
rclavicle -1.25234e-014 -1.47101e-014
rhumerus -22.72 27.9652 -56.0451
rradius 135.477
rwrist -75.7118
rhand 58.1548 -5.19678
rfingers 7.12502
rthumb 74.0989 20.8732
lclavicle -1.25234e-014 -1.47101e-014
lhumerus -15.2515 -16.1397 50.7032
lradius 140.594
lwrist 74.9254
lhand 36.9711 49.6658
lfingers 7.12502
lthumb 59.8405 63.6125
rfemur -25.844 -12.7238 14.1981
rtibia 58.8868
rfoot -30.8417 -20.7116
rtoes -15.8131
lfemur -28.2113 0.535677 -24.8978
ltibia 57.7183
lfoot -31.1237 10.7517
ltoes -15.7823
1537
root 0.672103 16.5197 0.151915 3.24544 7.82645 2.45095
lowerback 12.9262 -0.15378 -5.23509
upperback 5.35362 -0.76756 1.32184
thorax -1.51759 -0.453313 4.44638
lowerneck 12.9013 -22.0094 -10.6601
upperneck -0.969068 -30.3701 9.03706
head 0.696074 -15.4108 4.2699
rclavicle -2.19657e-014 -3.57812e-015
rhumerus -22.8516 27.8512 -56.0561
rradius 135.505
rwrist -75.7296
rhand 58.0724 -5.13954
rfingers 7.12502
rthumb 74.072 20.6575
lclavicle -2.19657e-014 -3.57812e-015
lhumerus -15.1097 -16.1116 50.819
lradius 140.51
lwrist 74.6415
lhand 38.6883 50.6005
lfingers 7.12502
lthumb 61.2992 62.9404
rfemur -25.8673 -12.7022 14.2033
rtibia 58.8677
rfoot -30.7112 -20.5934
rtoes -15.6705
lfemur -28.1997 0.583156 -24.9019
ltibia 57.6891
lfoot -31.1325 10.7514
ltoes -15.8356
1538
root 0.672454 16.5208 0.152951 3.24623 7.74642 2.47674
lowerback 12.8738 -0.122195 -5.20273
upperback 5.37388 -0.719674 1.30135
thorax -1.47457 -0.430617 4.39871
lowerneck 12.8797 -21.7784 -10.6088
upperneck -0.904475 -30.0581 8.86493
head 0.655369 -15.2488 4.24029
rclavicle -2.38542e-015 -1.59028e-014
rhumerus -22.9462 27.6721 -56.0615
rradius 135.496
rwrist -75.7429
rhand 58.1604 -5.15005
rfingers 7.12502
rthumb 74.1007 20.9386
lclavicle -2.38542e-015 -1.59028e-014
lhumerus -14.9476 -16.0463 50.9096
lradius 140.444
lwrist 74.4383
lhand 39.7012 51.2955
lfingers 7.12502
lthumb 62.147 62.6052
rfemur -25.8716 -12.675 14.1738
rtibia 58.8449
rfoot -30.6714 -20.5826
rtoes -15.7115
lfemur -28.1799 0.637169 -24.9346
ltibia 57.663
lfoot -31.1119 10.8051
ltoes -16.1297
1539
root 0.673769 16.5218 0.153759 3.20953 7.69278 2.50463
lowerback 12.869 -0.0860404 -5.1218
upperback 5.38662 -0.662981 1.26682
thorax -1.46735 -0.401457 4.30839
lowerneck 12.7092 -21.4831 -10.5294
upperneck -0.692201 -29.6521 8.55115
head 0.647427 -15.0339 4.15233
rclavicle 6.26172e-015 -5.1684e-015
rhumerus -23.1021 27.5088 -56.1115
rradius 135.513
rwrist -75.7181
rhand 58.2746 -5.21641
rfingers 7.12502
rthumb 74.1373 21.2524
lclavicle 6.26172e-015 -5.1684e-015
lhumerus -14.8418 -16.1252 51.0391
lradius 140.398
lwrist 74.3455
lhand 39.3343 50.9172
lfingers 7.12502
lthumb 61.8411 62.6075
rfemur -25.8227 -12.6744 14.1221
rtibia 58.8271
rfoot -30.6233 -20.5452
rtoes -15.5957
lfemur -28.107 0.670584 -24.9756
ltibia 57.6323
lfoot -31.0995 10.8147
ltoes -16.2141
1540
root 0.675144 16.5229 0.154162 3.15247 7.66379 2.42381
lowerback 12.8663 -0.0501575 -4.91284
upperback 5.40703 -0.591016 1.25103
thorax -1.45679 -0.363445 4.16298
lowerneck 12.3594 -21.1398 -10.3656
upperneck -0.361457 -29.1625 8.12577
head 0.66739 -14.7726 4.00653
rclavicle 1.22253e-014 1.15295e-014
rhumerus -23.2902 27.3357 -56.1868
rradius 135.54
rwrist -75.6647
rhand 58.3542 -5.25075
rfingers 7.12502
rthumb 74.1625 21.4843
lclavicle 1.22253e-014 1.15295e-014
lhumerus -14.707 -16.1972 51.1477
lradius 140.282
lwrist 74.1401
lhand 39.2481 50.2514
lfingers 7.12502
lthumb 61.769 62.03
rfemur -25.7538 -12.6585 14.1915
rtibia 58.7931
rfoot -30.5883 -20.5111
rtoes -15.5661
lfemur -28.0389 0.688982 -24.8912
ltibia 57.6127
lfoot -31.1038 10.7903
ltoes -15.9527
1541
root 0.675312 16.5245 0.155223 3.1247 7.64044 2.39589
lowerback 12.8261 0.01688 -4.73255
upperback 5.40696 -0.480789 1.20808
thorax -1.45073 -0.305873 3.99979
lowerneck 11.994 -20.7046 -10.0804
upperneck 0.137556 -28.5402 7.2715
head 0.716153 -14.4399 4.16525
rclavicle 1.50082e-014 -1.63003e-014
rhumerus -23.5194 27.0996 -56.2686
rradius 135.549
rwrist -75.6467
rhand 58.3327 -5.31771
rfingers 7.12502
rthumb 74.1557 21.3454
lclavicle 1.50082e-014 -1.63003e-014
lhumerus -14.5473 -16.3722 51.2531
lradius 140.272
lwrist 74.3657
lhand 38.8275 50.5151
lfingers 7.12502
lthumb 61.4163 62.7173
rfemur -25.7249 -12.6605 14.2178
rtibia 58.7769
rfoot -30.5647 -20.5292
rtoes -15.8314
lfemur -27.9925 0.722066 -24.8605
ltibia 57.5812
lfoot -31.093 10.8521
ltoes -15.9644
1542
root 0.675602 16.5268 0.155653 3.11612 7.62162 2.4524
lowerback 12.7753 0.0730475 -4.67426
upperback 5.39315 -0.398982 1.16731
thorax -1.44771 -0.263739 3.91215
lowerneck 11.7217 -20.0966 -9.74823
upperneck 0.404775 -27.6812 6.82967
head 0.649728 -13.9959 4.0001
rclavicle -4.77083e-015 2.06736e-014
rhumerus -23.6268 26.9583 -56.2805
rradius 135.559
rwrist -75.6546
rhand 58.3012 -5.55117
rfingers 7.12502
rthumb 74.1458 21.0064
lclavicle -4.77083e-015 2.06736e-014
lhumerus -14.5307 -16.5226 51.3887
lradius 140.37
lwrist 74.7225
lhand 37.8826 50.7915
lfingers 7.12502
lthumb 60.6179 63.9063
rfemur -25.7125 -12.6707 14.1517
rtibia 58.7683
rfoot -30.5656 -20.5145
rtoes -15.9117
lfemur -27.952 0.715238 -24.9291
ltibia 57.5443
lfoot -31.1018 10.9177
ltoes -16.0738
